<svg xmlns="http://www.w3.org/2000/svg" style="display: none;"><symbol id="bell" viewBox="0 0 509.369 509.369"><title>bell</title><path d="m432.393 333.194c-7.282 0-13.207-5.925-13.207-13.208v-93.298c0-73.66-48.665-136.166-115.532-157.059 2.01-5.598 3.072-11.541 3.072-17.588 0-28.695-23.345-52.041-52.042-52.041s-52.042 23.346-52.042 52.042c0 6.094 1.041 12.028 3.038 17.599-66.849 20.903-115.498 83.4-115.498 157.048v93.298c0 7.283-5.925 13.208-13.207 13.208-29.123 0-52.815 23.693-52.815 52.815s23.692 52.815 52.815 52.815h123.208c-1.19 4.591-1.813 9.362-1.813 14.231 0 31.052 25.263 56.314 56.314 56.314s56.314-25.262 56.314-56.314c0-4.868-.623-9.639-1.814-14.231h123.208c29.123 0 52.815-23.693 52.815-52.815.002-29.123-23.691-52.816-52.814-52.816zm-199.751-281.152c0-12.154 9.888-22.042 22.042-22.042s22.042 9.888 22.042 22.042c0 3.985-1.078 7.864-3.083 11.244-6.223-.717-12.547-1.099-18.959-1.099-6.405 0-12.722.381-18.939 1.097-2.008-3.37-3.103-7.218-3.103-11.242zm48.357 401.013c0 14.51-11.805 26.314-26.314 26.314s-26.314-11.804-26.314-26.314c0-5.126 1.462-10.025 4.177-14.231h44.273c2.716 4.206 4.178 9.105 4.178 14.231zm151.394-44.231h-355.418c-12.58 0-22.815-10.235-22.815-22.815s10.235-22.815 22.815-22.815c23.824 0 43.207-19.383 43.207-43.208v-93.298c0-74.165 60.337-134.502 134.502-134.502s134.502 60.337 134.502 134.502v93.298c0 23.825 19.383 43.208 43.207 43.208 12.58 0 22.815 10.235 22.815 22.815.001 12.58-10.235 22.815-22.815 22.815z"/></symbol><symbol id="more" viewBox="0 0 426.667 426.667"><title>more</title><g> <g> <circle cx="42.667" cy="213.333" r="42.667"/> </g> </g><g> <g> <circle cx="213.333" cy="213.333" r="42.667"/> </g> </g><g> <g> <circle cx="384" cy="213.333" r="42.667"/> </g> </g></symbol><symbol id="message" viewBox="0 0 512 512"><title>message</title><path d="M438.957,19.477H73.043C32.766,19.477,0,52.244,0,92.52v246.961c0,40.276,32.766,73.043,73.043,73.043h28.663 l0.561,64.483c0.05,5.943,3.463,11.344,8.809,13.942c2.173,1.056,4.512,1.575,6.84,1.575c3.399,0,6.773-1.106,9.565-3.262 l99.425-76.738h212.051c40.277,0,73.043-32.767,73.043-73.043V92.52C512,52.244,479.234,19.477,438.957,19.477z M480.696,339.482 c0,23.015-18.724,41.739-41.739,41.739H221.569c-3.46,0-6.823,1.147-9.563,3.261l-78.711,60.75l-0.422-48.495 c-0.074-8.591-7.06-15.516-15.651-15.516H73.043c-23.015,0-41.739-18.724-41.739-41.739V92.52 c0-23.015,18.724-41.739,41.739-41.739h365.915c23.015,0,41.739,18.724,41.739,41.739V339.482z"/></symbol><symbol id="home" viewBox="0 0 512 512"><title>home</title><path d="m426 495.983h-340c-25.364 0-46-20.635-46-46v-242.02c0-8.836 7.163-16 16-16s16 7.164 16 16v242.02c0 7.72 6.28 14 14 14h340c7.72 0 14-6.28 14-14v-242.02c0-8.836 7.163-16 16-16s16 7.164 16 16v242.02c0 25.364-20.635 46-46 46z"/><path d="m496 263.958c-4.095 0-8.189-1.562-11.313-4.687l-198.989-198.987c-16.375-16.376-43.02-16.376-59.396 0l-198.988 198.988c-6.248 6.249-16.379 6.249-22.627 0-6.249-6.248-6.249-16.379 0-22.627l198.988-198.989c28.852-28.852 75.799-28.852 104.65 0l198.988 198.988c6.249 6.249 6.249 16.379 0 22.627-3.123 3.125-7.218 4.687-11.313 4.687z"/><path d="m320 495.983h-128c-8.837 0-16-7.164-16-16v-142c0-27.57 22.43-50 50-50h60c27.57 0 50 22.43 50 50v142c0 8.836-7.163 16-16 16zm-112-32h96v-126c0-9.925-8.075-18-18-18h-60c-9.925 0-18 8.075-18 18z"/></symbol></svg>